REM DIRINDEX 1\2\3,1\2\4,1\2\5,1\2\6
REM DIRNAME cjc157,folder01,folder02,folder03,folder04,folder05
TITLE ""
FILE "047 047.mp3" MP3
  TRACK 01 AUDIO
    TITLE "0:"
    INDEX 01 00:00:00
  TRACK 02 AUDIO
    TITLE "3:cjc157_1786"
    INDEX 01 00:00:11
  TRACK 03 AUDIO
    TITLE "0:"
    INDEX 01 00:01:52
  TRACK 04 AUDIO
    TITLE "4:cjc157_1787"
    INDEX 01 00:02:24
  TRACK 05 AUDIO
    TITLE "0:"
    INDEX 01 00:03:15
  TRACK 06 AUDIO
    TITLE "5:cjc157_1788"
    INDEX 01 00:03:64
  TRACK 07 AUDIO
    TITLE "0:"
    INDEX 01 00:05:67
  TRACK 08 AUDIO
    TITLE "3:cjc157_1789"
    INDEX 01 00:06:33
  TRACK 09 AUDIO
    TITLE "0:"
    INDEX 01 00:07:51
  TRACK 10 AUDIO
    TITLE "4:cjc157_1790"
    INDEX 01 00:08:21
  TRACK 11 AUDIO
    TITLE "0:"
    INDEX 01 00:09:44
  TRACK 12 AUDIO
    TITLE "5:cjc157_1791"
    INDEX 01 00:10:12
  TRACK 13 AUDIO
    TITLE "0:"
    INDEX 01 00:12:67
  TRACK 14 AUDIO
    TITLE "3:cjc157_1792"
    INDEX 01 00:13:37
  TRACK 15 AUDIO
    TITLE "0:"
    INDEX 01 00:15:17
  TRACK 16 AUDIO
    TITLE "4:cjc157_1793"
    INDEX 01 00:15:62
  TRACK 17 AUDIO
    TITLE "0:"
    INDEX 01 00:16:69
  TRACK 18 AUDIO
    TITLE "5:cjc157_1794"
    INDEX 01 00:17:39
  TRACK 19 AUDIO
    TITLE "0:"
    INDEX 01 00:20:53
  TRACK 20 AUDIO
    TITLE "5:cjc157_1795"
    INDEX 01 00:21:29
  TRACK 21 AUDIO
    TITLE "0:"
    INDEX 01 00:23:51
  TRACK 22 AUDIO
    TITLE "5:cjc157_1796"
    INDEX 01 00:24:18
  TRACK 23 AUDIO
    TITLE "0:"
    INDEX 01 00:26:15
  TRACK 24 AUDIO
    TITLE "3:cjc157_1797"
    INDEX 01 00:26:60
  TRACK 25 AUDIO
    TITLE "0:"
    INDEX 01 00:28:15
  TRACK 26 AUDIO
    TITLE "4:cjc157_1798"
    INDEX 01 00:28:62
  TRACK 27 AUDIO
    TITLE "0:"
    INDEX 01 00:30:01
  TRACK 28 AUDIO
    TITLE "5:cjc157_1799"
    INDEX 01 00:30:46
  TRACK 29 AUDIO
    TITLE "0:"
    INDEX 01 00:32:54
  TRACK 30 AUDIO
    TITLE "5:cjc157_1800"
    INDEX 01 00:33:21
  TRACK 31 AUDIO
    TITLE "0:"
    INDEX 01 00:35:14
  TRACK 32 AUDIO
    TITLE "3:cjc157_1801"
    INDEX 01 00:35:59
  TRACK 33 AUDIO
    TITLE "0:"
    INDEX 01 00:37:14
  TRACK 34 AUDIO
    TITLE "4:cjc157_1802"
    INDEX 01 00:37:57
  TRACK 35 AUDIO
    TITLE "0:"
    INDEX 01 00:38:73
  TRACK 36 AUDIO
    TITLE "5:cjc157_1803"
    INDEX 01 00:39:41
  TRACK 37 AUDIO
    TITLE "0:"
    INDEX 01 00:41:69
  TRACK 38 AUDIO
    TITLE "5:cjc157_1804"
    INDEX 01 00:42:41
  TRACK 39 AUDIO
    TITLE "0:"
    INDEX 01 00:44:30
  TRACK 40 AUDIO
    TITLE "3:cjc157_1805"
    INDEX 01 00:45:00
  TRACK 41 AUDIO
    TITLE "0:"
    INDEX 01 00:46:43
  TRACK 42 AUDIO
    TITLE "4:cjc157_1806"
    INDEX 01 00:47:11
  TRACK 43 AUDIO
    TITLE "0:"
    INDEX 01 00:48:40
  TRACK 44 AUDIO
    TITLE "5:cjc157_1807"
    INDEX 01 00:49:10
  TRACK 45 AUDIO
    TITLE "0:"
    INDEX 01 00:52:10
  TRACK 46 AUDIO
    TITLE "5:cjc157_1808"
    INDEX 01 00:52:55
  TRACK 47 AUDIO
    TITLE "0:"
    INDEX 01 00:55:40
  TRACK 48 AUDIO
    TITLE "3:cjc157_1809"
    INDEX 01 00:56:12
  TRACK 49 AUDIO
    TITLE "0:"
    INDEX 01 00:57:25
  TRACK 50 AUDIO
    TITLE "4:cjc157_1810"
    INDEX 01 00:57:68
  TRACK 51 AUDIO
    TITLE "0:"
    INDEX 01 00:59:12
  TRACK 52 AUDIO
    TITLE "5:cjc157_1811"
    INDEX 01 00:59:59
  TRACK 53 AUDIO
    TITLE "0:"
    INDEX 01 01:02:46
  TRACK 54 AUDIO
    TITLE "3:cjc157_1812"
    INDEX 01 01:03:16
  TRACK 55 AUDIO
    TITLE "0:"
    INDEX 01 01:04:39
  TRACK 56 AUDIO
    TITLE "4:cjc157_1813"
    INDEX 01 01:05:11
  TRACK 57 AUDIO
    TITLE "0:"
    INDEX 01 01:06:32
  TRACK 58 AUDIO
    TITLE "5:cjc157_1814"
    INDEX 01 01:07:02
  TRACK 59 AUDIO
    TITLE "0:"
    INDEX 01 01:09:67
  TRACK 60 AUDIO
    TITLE "5:cjc157_1815"
    INDEX 01 01:10:35
  TRACK 61 AUDIO
    TITLE "0:"
    INDEX 01 01:14:17
  TRACK 62 AUDIO
    TITLE "3:cjc157_1816"
    INDEX 01 01:14:61
  TRACK 63 AUDIO
    TITLE "0:"
    INDEX 01 01:16:14
  TRACK 64 AUDIO
    TITLE "4:cjc157_1817"
    INDEX 01 01:16:60
  TRACK 65 AUDIO
    TITLE "0:"
    INDEX 01 01:18:13
  TRACK 66 AUDIO
    TITLE "5:cjc157_1818"
    INDEX 01 01:18:58
  TRACK 67 AUDIO
    TITLE "0:"
    INDEX 01 01:21:51
  TRACK 68 AUDIO
    TITLE "3:cjc157_1819"
    INDEX 01 01:22:21
  TRACK 69 AUDIO
    TITLE "0:"
    INDEX 01 01:23:40
  TRACK 70 AUDIO
    TITLE "4:cjc157_1820"
    INDEX 01 01:24:12
  TRACK 71 AUDIO
    TITLE "0:"
    INDEX 01 01:27:16
  TRACK 72 AUDIO
    TITLE "5:cjc157_1821"
    INDEX 01 01:27:63
  TRACK 73 AUDIO
    TITLE "0:"
    INDEX 01 01:30:05
  TRACK 74 AUDIO
    TITLE "5:cjc157_1822"
    INDEX 01 01:30:54
  TRACK 75 AUDIO
    TITLE "0:"
    INDEX 01 01:32:51
  TRACK 76 AUDIO
    TITLE "5:cjc157_1823"
    INDEX 01 01:33:21
  TRACK 77 AUDIO
    TITLE "0:"
    INDEX 01 01:35:33
